<svg width="570" height="570" version="1.1" xmlns="http://www.w3.org/2000/svg" xmlns:xlink="http://www.w3.org/1999/xlink"><use transform="translate(-.010299 -.022012)" xlink:href="#a"/><circle transform="rotate(180 351.56 345.92) scale(1.01)" cx="413.97" cy="402.8" r="277.22"/><circle id="b" transform="translate(-118.94 -108.06) scale(.97577)" cx="413.97" cy="402.8" r="277.22" fill="#fef137"/><circle transform="translate(-84.599 -74.644) scale(.8928)" cx="413.97" cy="402.8" r="277.22"/><use transform="translate(67.961 67.977) scale(.76154)" xlink:href="#b"/><circle transform="translate(-119.43 -138.6) scale(1.0302)" cx="392.57" cy="411.18" r="167.45"/><path transform="matrix(2.6498 0 0 2.6516 -444.66 -474.05)" d="m204.89 256.13 13.31-2.61-4.4-12.83 13.55.54-1.32-13.5 13.06 3.65 1.83-13.44 11.87 6.56 4.87-12.65 10.04 9.12 7.66-11.19 7.66 11.19 10.03-9.12 4.88 12.65 11.87-6.56 1.82 13.44 13.06-3.65-1.32 13.5 13.55-.54-4.4 12.83 13.31 2.61-7.24 11.46 12.35 5.6-9.69 9.49 10.73 8.3-11.62 7 8.52 10.55-12.91 4.13 5.86 12.23-13.53 1.04 2.89 13.25-13.4-2.1-.25 13.56-12.55-5.14-3.38 13.13-11.02-7.89-6.31 12-8.91-10.22-8.91 10.22-6.31-12-11.03 7.89-3.37-13.13-12.55 5.14-.25-13.56-13.4 2.1 2.88-13.25-13.52-1.04 5.86-12.23-12.92-4.13 8.52-10.55-11.61-7 10.72-8.3-9.69-9.49 12.35-5.6z" fill="none" stroke="#000" stroke-width="1.509"/><circle transform="translate(80.308 -399.23) scale(1.9301)" cx="106.05" cy="354.43" r="61.397" fill="#cf2c38"/><use transform="matrix(-1 0 0 1 569.98 0)" xlink:href="#c"/><path d="M279.14 313.06c-1.32 0-2.62.61-4.22 1.4-1.6.8-3.46 1.82-5.56 2.75-8.38 3.45-12.11 3.48-21.56.78.35-1.51.24-3.08.3-4.71l-1.62-.1c-.19 5.2-1.66 9.63-4.29 14.31l1.14.91c1.58-2.68 2.99-5.48 3.93-8.47 27.63 7.37 53.79 7.07 79.91.13.78 2.49 1.72 5.06 2.75 7.72l1.38-.72c-1.8-4.63-3.26-9.04-4.13-13l-1.5.43c.26 1.18.59 2.4.94 3.63-9.75 3.07-13.63 1.97-20.03-1-4.09-1.9-7.54-4.03-10.91-4.03-1.89 0-3.16.73-4.25 1.34-2.62 1.46-5.17 1.56-7.75 0-1.04-.63-2.38-1.37-4.53-1.37zm0 2c1.73 0 2.43.48 3.5 1.09 3.17 1.82 6.28 1.94 9.72.06 1.15-.63 1.92-1.12 3.31-1.12 2.42 0 5.97 1.94 10.06 3.84 1.93.89 4.01 1.75 6.19 2.35-5.9.97-11.87 1.61-17.87 1.87 1.83-.88 3.05-2.43 3.95-3.52l-1.3-.76c-1.25 1.8-5.34 4.41-10.19 4.41-7.73 0-15.54-.68-23.31-1.94 2.56-.54 4.9-1.4 6.97-2.31 2.19-.98 4.11-1.98 5.66-2.75s2.77-1.22 3.31-1.22zm-7.34 14.02-1.22.6c9.29 11.22 24.51 10.39 33.18.03l-1.07-.63c-8.63 9.8-23.64 8.56-30.89 0zm-1.06 24.4.89.52c9.32-10.28 25.1-11.11 33.26.65l1.19-1.01c-9.69-13.09-26.38-11.84-35.34-.16z"/><circle transform="translate(-91.295 -146.28) scale(1.0189)" cx="369.31" cy="423.27" r="106.98" fill="none" stroke="#000" stroke-width="3.9259"/><circle transform="translate(-408.97 -440.86) scale(1.713)" cx="405.13" cy="423.73" r="57.211" fill="none" stroke="#000" stroke-width="2.3351"/><g id="c" transform="translate(-.010299 -.022012)"><g transform="translate(-119.66 -119.67)"><path d="M323.12 372.56c18.27 11.7 38.25 10.62 57.47.06-19.73-10.17-39.61-11.98-57.47-.06z" fill="none" stroke="#000" stroke-width="2"/><circle transform="translate(32.589 33.429) scale(.90506)" cx="350.01" cy="374.78" r="9.1863" fill="none" stroke="#000" stroke-width="2.2098"/><circle transform="translate(-141.52 -150.97) scale(1.4062)" cx="349.08" cy="372.34" r="1.8605"/><path d="m348.15 355.12.29.89c16.86-1.14 29.7 6.52 33.87 16.65-.43 3.13-3.6 6.56-8.22 9.59-4.62 3.04-11.02 5.57-17.26 6.3l.17.98c12.06-1.02 26.44-7.63 27.45-17.09-4.71-12.82-22.62-19.97-36.3-17.32zm-11.61 3.02c-5.76 2.54-12.94 6.07-15.22 14.39 2.14 11 13.46 15.55 20.57 16.43l.33-1.14c-8.55-1.1-16.95-7.17-18.72-15.23 1.78-6.25 7.34-10.69 13.49-13.26z"/></g><path d="m208.87 222.11.52 2.06c20.73-14.05 48.47-10.12 63.43 9.71l1.25-.33c-15.74-21.96-44.94-26.24-65.2-11.44zm83.95 83.48 1.52-.61c-2.19-4.45-5.18-7.81-9.79-7.97-2.29 0-2.99-.54-3.84-1.31-.86-.76-1.86-1.94-3.91-2.5-2.03-.55-3.98-.29-5.75-.22-1.76.08-3.63.24-5.03-.59-2.79-1.66-4.09-6.34-4.09-6.34l-1 .43s.57 5.09 4.4 7.38c1.92 1.14 3.93 1.2 5.78 1.12 1.86-.08 3.6-.27 5.16.16 1.55.42 2.08 1.15 3.09 2.06 1.02.91 2.52 1.81 5.19 1.81 3.32 0 6.63 3.16 8.27 6.58zm-85.54 11.86-.17 1.02c5.27 4.46 10.5 11.66 14.01 18.17l1.75-.97c-2.49-6.19-9.79-13.76-15.59-18.22zm.97 9.66-.33.76c2.59 2.2 3.88 4.33 5.83 7.73l1.44-.51c-1.38-3.23-3.71-5.66-6.94-7.98z"/><g id="f"><g id="e"><circle id="d" transform="translate(-6.0867 -1641.5) scale(1.3419)" cx="216.92" cy="1327.4" r="17.512" fill="#fef137"/><use transform="translate(55.484 11.082)" xlink:href="#d"/></g><use transform="rotate(44.979 284.79 284.76)" xlink:href="#e"/></g><use transform="matrix(.0010708 1 -1 .0010708 569.41 -.36923)" xlink:href="#f"/><g id="i"><g id="h"><g id="g"><circle id="a" transform="translate(77.765 -1210.1) scale(.95535)" cx="216.92" cy="1327.4" r="17.512" fill="#fef137"/><use transform="translate(50.469 5.8709)" xlink:href="#a"/></g><use transform="rotate(25.478 284.01 286.91)" xlink:href="#g"/></g><use transform="rotate(51.396 284.86 285.05)" xlink:href="#h"/></g><use transform="matrix(1 0 0 -1 0 570)" xlink:href="#i"/><g transform="translate(.35355)"><g id="l"><g id="k"><circle id="j" transform="translate(-120.55 -804.04)" cx="428.03" cy="892.21" r="4.0718"/><use transform="translate(44.492 10.726)" xlink:href="#j"/></g><use transform="rotate(29.228 289.41 268.96)" xlink:href="#k"/></g><use transform="rotate(52.602 280.47 287.35)" xlink:href="#l"/><use transform="matrix(.99237 .12326 .12326 -.99237 -31.223 531.23)" xlink:href="#l"/></g><use transform="rotate(107.48 284.95 283.89)" xlink:href="#k"/></g><use transform="matrix(1 0 0 -1 -.010299 569.98)" xlink:href="#d"/></svg>